<?xml version="1.0" standalone="no"?>
<!DOCTYPE svg PUBLIC "-//W3C//DTD SVG 20010904//EN"
 "http://www.w3.org/TR/2001/REC-SVG-20010904/DTD/svg10.dtd">
<svg version="1.0" xmlns="http://www.w3.org/2000/svg"
 width="225.000000pt" height="225.000000pt" viewBox="0 0 225.000000 225.000000"
 preserveAspectRatio="xMidYMid meet">

<g transform="translate(0.000000,225.000000) scale(0.100000,-0.100000)"
fill="#000000" stroke="none">
<path d="M975 2239 c-226 -28 -446 -134 -616 -296 -207 -196 -322 -429 -351
-708 -55 -535 286 -1039 806 -1190 380 -109 792 -9 1077 262 295 281 416 669
329 1063 -45 207 -132 369 -285 529 -249 262 -597 385 -960 340z m316 -114
c213 -37 396 -132 550 -284 128 -128 224 -297 270 -476 33 -130 34 -352 0
-480 -25 -98 -91 -247 -140 -319 l-31 -45 -35 15 c-20 8 -110 32 -202 54 -230
56 -281 81 -335 168 l-20 33 40 52 c60 78 182 282 199 333 17 50 12 85 -16
111 -17 16 -20 36 -23 174 -3 150 -4 158 -33 214 -66 130 -309 278 -470 287
-29 2 -49 -1 -49 -7 1 -5 5 -27 8 -48 6 -31 4 -38 -11 -43 -114 -37 -210 -115
-252 -204 -24 -51 -26 -66 -27 -201 -1 -143 -2 -146 -28 -172 -56 -56 -33
-121 121 -355 81 -123 80 -118 36 -205 -32 -63 -76 -84 -297 -137 -92 -22
-183 -47 -202 -55 l-34 -14 -29 42 c-117 171 -180 401 -168 616 21 366 234
689 562 853 192 96 411 129 616 93z"/>
</g>
</svg>
