<svg width="16" height="16" viewBox="0 0 16 16" fill="none" xmlns="http://www.w3.org/2000/svg">
<path d="M6.31322 4.35322C6.40697 4.44685 6.53405 4.49945 6.66655 4.49945C6.79905 4.49945 6.92614 4.44685 7.01989 4.35322L7.49989 3.87322V7.49989H3.87322L4.35322 7.01989C4.40234 6.97411 4.44175 6.91891 4.46907 6.85758C4.4964 6.79624 4.5111 6.73004 4.51228 6.6629C4.51346 6.59577 4.50111 6.52908 4.47597 6.46682C4.45082 6.40456 4.41339 6.34801 4.36591 6.30053C4.31843 6.25305 4.26188 6.21562 4.19962 6.19047C4.13736 6.16532 4.07067 6.15297 4.00354 6.15416C3.9364 6.15534 3.87019 6.17004 3.80886 6.19736C3.74753 6.22469 3.69233 6.26409 3.64655 6.31322L2.31322 7.64655C2.21959 7.7403 2.16699 7.86739 2.16699 7.99989C2.16699 8.13239 2.21959 8.25947 2.31322 8.35322L3.64655 9.68655C3.74134 9.77487 3.8667 9.82295 3.99623 9.82067C4.12577 9.81838 4.24936 9.76591 4.34097 9.6743C4.43258 9.58269 4.48505 9.4591 4.48734 9.32957C4.48962 9.20003 4.44154 9.07467 4.35322 8.97989L3.87322 8.49989H7.49989V12.1266L7.01989 11.6466C6.97411 11.5974 6.91891 11.558 6.85758 11.5307C6.79624 11.5034 6.73004 11.4887 6.6629 11.4875C6.59577 11.4863 6.52908 11.4987 6.46682 11.5238C6.40456 11.549 6.34801 11.5864 6.30053 11.6339C6.25305 11.6813 6.21562 11.7379 6.19047 11.8002C6.16532 11.8624 6.15297 11.9291 6.15416 11.9962C6.15534 12.0634 6.17004 12.1296 6.19736 12.1909C6.22469 12.2522 6.26409 12.3074 6.31322 12.3532L7.64655 13.6866C7.7403 13.7802 7.86739 13.8328 7.99989 13.8328C8.13239 13.8328 8.25947 13.7802 8.35322 13.6866L9.68655 12.3532C9.73568 12.3074 9.77508 12.2522 9.80241 12.1909C9.82973 12.1296 9.84443 12.0634 9.84561 11.9962C9.8468 11.9291 9.83445 11.8624 9.8093 11.8002C9.78415 11.7379 9.74672 11.6813 9.69924 11.6339C9.65177 11.5864 9.59521 11.549 9.53295 11.5238C9.47069 11.4987 9.40401 11.4863 9.33687 11.4875C9.26974 11.4887 9.20353 11.5034 9.14219 11.5307C9.08086 11.558 9.02566 11.5974 8.97989 11.6466L8.49989 12.1266V8.49989H12.1266L11.6466 8.97989C11.5974 9.02566 11.558 9.08086 11.5307 9.14219C11.5034 9.20353 11.4887 9.26974 11.4875 9.33687C11.4863 9.40401 11.4987 9.47069 11.5238 9.53295C11.549 9.59521 11.5864 9.65177 11.6339 9.69924C11.6813 9.74672 11.7379 9.78415 11.8002 9.8093C11.8624 9.83445 11.9291 9.8468 11.9962 9.84561C12.0634 9.84443 12.1296 9.82973 12.1909 9.80241C12.2522 9.77508 12.3074 9.73568 12.3532 9.68655L13.6866 8.35322C13.7802 8.25947 13.8328 8.13239 13.8328 7.99989C13.8328 7.86739 13.7802 7.7403 13.6866 7.64655L12.3532 6.31322C12.3074 6.26409 12.2522 6.22469 12.1909 6.19736C12.1296 6.17004 12.0634 6.15534 11.9962 6.15416C11.9291 6.15297 11.8624 6.16532 11.8002 6.19047C11.7379 6.21562 11.6813 6.25305 11.6339 6.30053C11.5864 6.34801 11.549 6.40456 11.5238 6.46682C11.4987 6.52908 11.4863 6.59577 11.4875 6.6629C11.4887 6.73004 11.5034 6.79624 11.5307 6.85758C11.558 6.91891 11.5974 6.97411 11.6466 7.01989L12.1266 7.49989H8.49989V3.87322L8.97989 4.35322C9.02566 4.40234 9.08086 4.44175 9.14219 4.46907C9.20353 4.4964 9.26974 4.5111 9.33687 4.51228C9.40401 4.51346 9.47069 4.50111 9.53295 4.47597C9.59521 4.45082 9.65177 4.41339 9.69924 4.36591C9.74672 4.31843 9.78415 4.26188 9.8093 4.19962C9.83445 4.13736 9.8468 4.07067 9.84561 4.00354C9.84443 3.9364 9.82973 3.87019 9.80241 3.80886C9.77508 3.74753 9.73568 3.69233 9.68655 3.64655L8.35322 2.31322C8.25947 2.21959 8.13239 2.16699 7.99989 2.16699C7.86739 2.16699 7.7403 2.21959 7.64655 2.31322L6.31322 3.64655C6.21959 3.7403 6.16699 3.86739 6.16699 3.99989C6.16699 4.13239 6.21959 4.25947 6.31322 4.35322Z" fill="black"/>
</svg>
